PathFileType	4	(X/Y/Z)	C:/Users/beibeiliu/ov580/test_trc/User2\sequence.30_training_dense_right.trc
DataRate	CameraRate	NumFrames	NumMarkers	Units	OrigDataRate	OrigDataStartFrame	OrigNumFrames
120	120	10	19	mm	120	38	302
Frame#	Time	ThumbCMC			ThumbMCP			ThumbIP			ThumbTip			IndexMCP			IndexPIP			IndexTip			MiddleMCP			MiddlePIP			MiddleTip			RingMCP			RingPIP			RingTip			PinkyMCP			PinkyPIP			PinkyTip			BackHand1			BackHand2			BackHand3	
		X0	Y0	Z0	X1	Y1	Z1	X2	Y2	Z2	X3	Y3	Z3	X4	Y4	Z4	X5	Y5	Z5	X6	Y6	Z6	X7	Y7	Z7	X8	Y8	Z8	X9	Y9	Z9	X10	Y10	Z10	X11	Y11	Z11	X12	Y12	Z12	X13	Y13	Z13	X14	Y14	Z14	X15	Y15	Z15	X16	Y16	Z16	X17	Y17	Z17	X18	Y18	Z18	
37	0.308333	80.3998	-42.0763	46.2701	64.2904	-49.6846	18.578	53.1467	-56.0548	-17.1494	47.5411	-64.988	-37.5311	128.074	-25.9528	-25.2431	140.428	-24.565	-47.8749	150.198	-20.1203	-73.0762	155.382	-19.5726	-23.558	173.879	-18.8201	-45.6066	191.622	-12.2251	-69.7518	173.47	-23.9057	-5.62191	190.364	-21.7419	-29.3268	202.936	-16.5931	-49.7227	189.507	-36.8512	21.0039	211.109	-34.3603	7.1417	226.977	-25.6775	-5.13106	146.699	-19.3503	42.88	138.795	-13.3858	69.6847	111.404	-16.0696	39.1956	
38	0.316667	74.4664	-42.4691	49.2631	59.3952	-50.2659	22.0327	47.5169	-56.7494	-12.2392	40.1843	-66.7736	-30.4689	122.118	-25.8599	-27.5972	130.443	-24.2313	-51.0642	143.67	-21.3356	-74.2206	149.418	-19.8722	-20.8087	161.53	-17.9545	-46.9179	178.02	-10.0087	-73.3373	166.493	-23.0954	-9.8515	181.259	-20.2046	-25.8556	193.509	-14.0544	-51.281	181.125	-36.2594	20.2738	201.482	-35.0248	8.88933	217.741	-25.8647	-5.55536	141.149	-21.9309	43.2172	131.235	-15.0133	69.6162	106.351	-15.6138	42.3314	
39	0.325	64.8887	-44.869	52.1454	53.1907	-51.3756	22.521	42.946	-58.7312	-7.22924	32.8465	-68.6272	-25.5404	106.4	-27.0799	-21.7306	114.329	-24.2068	-48.2971	125.392	-21.1653	-74.3557	134.899	-18.1541	-24.2785	150.332	-15.2449	-49.8493	165.083	-8.42096	-74.9268	159.415	-21.342	-9.07423	169.681	-17.0375	-29.5733	182.216	-10.2924	-54.77	171.575	-33.6264	15.8848	193.495	-29.8704	3.72206	210.339	-20.035	-10.0356	137.177	-21.9878	44.0079	127.652	-17.4561	75.2845	97.5758	-17.5623	44.5655	
40	0.333333	59.6923	-47.3837	54.7792	44.8451	-55.2505	31.0887	30.7487	-62.0758	0.665812	24.0785	-69.1815	-21.3867	92.2213	-26.3594	-20.4561	100.466	-24.7074	-46.6534	108.109	-21.1292	-76.2822	122.915	-17.5048	-20.8088	129.43	-15.0226	-47.6335	141.107	-4.93138	-76.4727	145.619	-20.5639	-5.75784	154.216	-13.9329	-30.6999	165.443	-5.51177	-53.8107	164.158	-30.903	16.6106	181.957	-24.7427	-0.0615869	195.658	-13.459	-13.6237	126.057	-22.255	43.3411	120.208	-16.7251	75.3123	91.984	-21.7001	49.7928	
41	0.341667	55.2883	-51.7036	62.0665	34.1188	-58.9353	40.9935	22.8852	-63.9002	7.35011	13.0937	-71.6248	-16.6234	74.6983	-26.8306	-17.3382	79.1863	-24.2032	-44.7908	81.1888	-21.3782	-70.5107	102.741	-15.3459	-22.897	110.738	-10.8076	-48.8581	117.402	-0.817818	-78.1007	130.008	-15.7915	-10.016	133.554	-9.77472	-30.5295	143.563	1.36663	-59.5203	150.061	-28.1161	14.8486	163.307	-17.4853	-9.19298	175.579	-6.4613	-20.1236	117.324	-20.6669	46.6287	113.877	-20.2886	73.9774	79.3402	-24.1203	54.2293	
42	0.35	50.0199	-54.6976	67.3099	27.4516	-62.0417	48.848	10.3299	-66.6841	15.589	0.73084	-73.1371	-8.36957	62.752	-26.9876	-14.9733	61.8192	-24.5776	-38.1468	61.1075	-20.4981	-65.342	87.7123	-14.7862	-19.9556	89.4909	-10.2063	-44.1876	89.6321	0.127285	-74.4383	110.025	-16.3774	-8.94849	115.345	-6.86355	-32.6627	115.97	2.67372	-56.3455	137.143	-25.7328	11.6229	146.427	-15.877	-8.08654	154.077	-0.327208	-26.3312	107.347	-21.8703	47.3973	108.006	-21.0445	75.1264	71.5703	-26.575	55.4419	
43	0.358333	40.9976	-58.0295	74.9566	20.5684	-63.9785	55.9107	1.81223	-69.1566	27.0843	-8.00353	-75.4115	5.38557	49.3203	-28.8172	-4.21515	40.5146	-23.4247	-34.9735	38.9611	-19.4392	-57.9519	71.2263	-18.0413	-11.0581	66.5194	-10.1008	-41.2877	66.0133	0.102045	-67.814	96.411	-16.3098	-5.08668	97.2794	-6.45022	-32.9516	100.599	3.76047	-55.6608	123.929	-24.931	8.77802	127.632	-16.2727	-12.9095	134.622	-1.30884	-29.5443	97.9568	-24.4392	49.2411	100.606	-22.589	77.2253	67.5621	-29.0261	64.0494	
44	0.366667	38.4839	-60.6412	76.9486	13.8692	-66.5226	64.0165	-6.98914	-71.7376	36.4311	-20.3048	-77.7754	14.5933	32.5543	-29.0986	-1.80452	24.9076	-26.2965	-24.3697	23.6573	-19.1533	-52.742	55.9656	-18.3187	-8.97991	53.8902	-9.28007	-37.7058	48.4726	1.5345	-64.6511	83.7106	-17.3384	-7.20531	81.6115	-7.30056	-30.9612	82.2472	2.88651	-54.1386	107.203	-29.2912	7.20632	114.525	-17.2146	-15.5033	113.949	-3.13196	-32.382	89.7608	-24.4622	46.8465	96.2333	-27.6292	81.6078	58.2184	-31.9804	68.9381	
45	0.375	33.339	-63.4159	83.169	5.38733	-68.252	68.8465	-18.9425	-72.7664	44.3714	-33.9392	-79.2209	23.9423	24.7294	-32.3241	7.78841	10.4264	-29.4832	-17.6374	3.31769	-22.1406	-45.883	43.4409	-19.7178	-2.69715	37.0246	-11.8078	-29.0058	33.2437	0.97646	-59.2932	70.6106	-21.9227	-0.553371	67.6808	-10.1033	-27.8901	64.2616	2.36284	-50.6179	99.4094	-29.382	6.31024	98.5553	-22.6357	-13.5817	104.302	-4.13487	-30.6341	80.8135	-29.7562	50.8317	93.6747	-28.098	82.7896	49.2614	-33.9847	70.6197	
46	0.383333	26.9449	-65.6482	88.8295	2.59316	-70.2191	75.3111	-25.958	-74.9423	50.282	-37.3388	-81.7742	34.7078	11.642	-35.183	13.4075	1.7128	-29.8038	-12.2797	-8.85843	-23.2602	-40.8328	35.4555	-21.4808	1.30583	24.5891	-12.1102	-26.5135	18.4527	-0.89225	-54.1578	60.6395	-23.0251	1.54055	55.2128	-11.751	-24.8839	49.4223	1.05138	-48.0375	91.7009	-30.3365	5.34765	91.6005	-20.7245	-18.2105	87.4351	-7.89458	-32.8851	79.0626	-30.8269	46.9006	88.5041	-29.3878	78.4822	49.2534	-34.9855	73.0414	
